<mxfile host="app.diagrams.net" modified="2022-06-23T01:25:14.817Z" agent="5.0 (Macintosh; Intel Mac OS X 10_15_7) AppleWebKit/605.1.15 (KHTML, like Gecko) Version/15.3 Safari/605.1.15" etag="4YozzyPiIePI_V_2sHiw" version="20.0.1" type="github">
  <diagram id="C5RBs43oDa-KdzZeNtuy" name="Page-1">
    <mxGraphModel dx="1120" dy="747" grid="1" gridSize="10" guides="1" tooltips="1" connect="1" arrows="1" fold="1" page="1" pageScale="1" pageWidth="827" pageHeight="1169" math="0" shadow="0">
      <root>
        <mxCell id="WIyWlLk6GJQsqaUBKTNV-0" />
        <mxCell id="WIyWlLk6GJQsqaUBKTNV-1" parent="WIyWlLk6GJQsqaUBKTNV-0" />
        <mxCell id="OMhgGvtzp42g15X-fxHF-0" value="campaign&lt;br&gt;producer&lt;br&gt;job" style="rounded=1;whiteSpace=wrap;html=1;fillColor=#dae8fc;strokeColor=#6c8ebf;" vertex="1" parent="WIyWlLk6GJQsqaUBKTNV-1">
          <mxGeometry x="140" y="210" width="110" height="50" as="geometry" />
        </mxCell>
        <mxCell id="OMhgGvtzp42g15X-fxHF-1" value="offer&lt;br&gt;producer&lt;br&gt;job" style="rounded=1;whiteSpace=wrap;html=1;fillColor=#dae8fc;strokeColor=#6c8ebf;" vertex="1" parent="WIyWlLk6GJQsqaUBKTNV-1">
          <mxGeometry x="140" y="330" width="110" height="50" as="geometry" />
        </mxCell>
        <mxCell id="OMhgGvtzp42g15X-fxHF-2" value="" style="shape=cylinder3;whiteSpace=wrap;html=1;boundedLbl=1;backgroundOutline=1;size=15;rotation=-90;fillColor=#ffe6cc;strokeColor=#d79b00;" vertex="1" parent="WIyWlLk6GJQsqaUBKTNV-1">
          <mxGeometry x="601" y="175" width="40" height="110" as="geometry" />
        </mxCell>
        <mxCell id="OMhgGvtzp42g15X-fxHF-3" value="p1" style="rounded=0;whiteSpace=wrap;html=1;fillColor=#ffe6cc;strokeColor=#d79b00;" vertex="1" parent="WIyWlLk6GJQsqaUBKTNV-1">
          <mxGeometry x="606" y="210" width="50" height="20" as="geometry" />
        </mxCell>
        <mxCell id="OMhgGvtzp42g15X-fxHF-4" value="p2" style="rounded=0;whiteSpace=wrap;html=1;fillColor=#ffe6cc;strokeColor=#d79b00;" vertex="1" parent="WIyWlLk6GJQsqaUBKTNV-1">
          <mxGeometry x="606" y="230" width="50" height="20" as="geometry" />
        </mxCell>
        <mxCell id="OMhgGvtzp42g15X-fxHF-10" value="" style="shape=flexArrow;endArrow=classic;html=1;rounded=0;fillColor=#d5e8d4;strokeColor=#82b366;" edge="1" parent="WIyWlLk6GJQsqaUBKTNV-1">
          <mxGeometry width="50" height="50" relative="1" as="geometry">
            <mxPoint x="380" y="329" as="sourcePoint" />
            <mxPoint x="450" y="329" as="targetPoint" />
          </mxGeometry>
        </mxCell>
        <mxCell id="OMhgGvtzp42g15X-fxHF-11" value="msg1" style="rounded=0;whiteSpace=wrap;html=1;fillColor=#d5e8d4;strokeColor=#82b366;" vertex="1" parent="WIyWlLk6GJQsqaUBKTNV-1">
          <mxGeometry x="493" y="264.5" width="60" height="30" as="geometry" />
        </mxCell>
        <mxCell id="OMhgGvtzp42g15X-fxHF-12" value="msgn" style="rounded=0;whiteSpace=wrap;html=1;fillColor=#d5e8d4;strokeColor=#82b366;" vertex="1" parent="WIyWlLk6GJQsqaUBKTNV-1">
          <mxGeometry x="402" y="264.5" width="60" height="30" as="geometry" />
        </mxCell>
        <mxCell id="OMhgGvtzp42g15X-fxHF-13" value="..." style="text;html=1;strokeColor=none;fillColor=none;align=center;verticalAlign=middle;whiteSpace=wrap;rounded=0;" vertex="1" parent="WIyWlLk6GJQsqaUBKTNV-1">
          <mxGeometry x="449" y="264.5" width="61" height="30" as="geometry" />
        </mxCell>
        <mxCell id="OMhgGvtzp42g15X-fxHF-14" value="barrier&lt;br&gt;msg" style="rounded=0;whiteSpace=wrap;html=1;fillColor=#f8cecc;strokeColor=#b85450;" vertex="1" parent="WIyWlLk6GJQsqaUBKTNV-1">
          <mxGeometry x="280" y="264.5" width="60" height="30" as="geometry" />
        </mxCell>
        <mxCell id="OMhgGvtzp42g15X-fxHF-17" value="per partition" style="shape=callout;whiteSpace=wrap;html=1;perimeter=calloutPerimeter;position2=0.42;" vertex="1" parent="WIyWlLk6GJQsqaUBKTNV-1">
          <mxGeometry x="270" y="175" width="120" height="80" as="geometry" />
        </mxCell>
        <mxCell id="OMhgGvtzp42g15X-fxHF-18" value="" style="shape=cylinder3;whiteSpace=wrap;html=1;boundedLbl=1;backgroundOutline=1;size=15;rotation=-90;fillColor=#ffe6cc;strokeColor=#d79b00;" vertex="1" parent="WIyWlLk6GJQsqaUBKTNV-1">
          <mxGeometry x="606" y="300" width="40" height="110" as="geometry" />
        </mxCell>
        <mxCell id="OMhgGvtzp42g15X-fxHF-19" value="p1" style="rounded=0;whiteSpace=wrap;html=1;fillColor=#ffe6cc;strokeColor=#d79b00;" vertex="1" parent="WIyWlLk6GJQsqaUBKTNV-1">
          <mxGeometry x="611" y="335" width="50" height="20" as="geometry" />
        </mxCell>
        <mxCell id="OMhgGvtzp42g15X-fxHF-20" value="p2" style="rounded=0;whiteSpace=wrap;html=1;fillColor=#ffe6cc;strokeColor=#d79b00;" vertex="1" parent="WIyWlLk6GJQsqaUBKTNV-1">
          <mxGeometry x="611" y="355" width="50" height="20" as="geometry" />
        </mxCell>
        <mxCell id="OMhgGvtzp42g15X-fxHF-21" value="producer" style="text;html=1;strokeColor=none;fillColor=none;align=center;verticalAlign=middle;whiteSpace=wrap;rounded=0;" vertex="1" parent="WIyWlLk6GJQsqaUBKTNV-1">
          <mxGeometry x="390" y="100" width="70" height="30" as="geometry" />
        </mxCell>
        <mxCell id="OMhgGvtzp42g15X-fxHF-22" value="" style="endArrow=none;html=1;rounded=0;" edge="1" parent="WIyWlLk6GJQsqaUBKTNV-1">
          <mxGeometry width="50" height="50" relative="1" as="geometry">
            <mxPoint x="760" y="399.5" as="sourcePoint" />
            <mxPoint x="760" y="159.5" as="targetPoint" />
          </mxGeometry>
        </mxCell>
        <mxCell id="OMhgGvtzp42g15X-fxHF-23" value="consumer" style="text;html=1;strokeColor=none;fillColor=none;align=center;verticalAlign=middle;whiteSpace=wrap;rounded=0;" vertex="1" parent="WIyWlLk6GJQsqaUBKTNV-1">
          <mxGeometry x="920" y="100" width="70" height="30" as="geometry" />
        </mxCell>
        <mxCell id="OMhgGvtzp42g15X-fxHF-24" value="" style="shape=flexArrow;endArrow=classic;html=1;rounded=0;" edge="1" parent="WIyWlLk6GJQsqaUBKTNV-1">
          <mxGeometry width="50" height="50" relative="1" as="geometry">
            <mxPoint x="790" y="300" as="sourcePoint" />
            <mxPoint x="860" y="300" as="targetPoint" />
          </mxGeometry>
        </mxCell>
        <mxCell id="OMhgGvtzp42g15X-fxHF-25" value="msg1" style="rounded=0;whiteSpace=wrap;html=1;fillColor=#d5e8d4;strokeColor=#82b366;" vertex="1" parent="WIyWlLk6GJQsqaUBKTNV-1">
          <mxGeometry x="920" y="215" width="60" height="30" as="geometry" />
        </mxCell>
        <mxCell id="OMhgGvtzp42g15X-fxHF-28" value="process normal msg" style="rounded=1;whiteSpace=wrap;html=1;fillColor=#d5e8d4;strokeColor=#82b366;" vertex="1" parent="WIyWlLk6GJQsqaUBKTNV-1">
          <mxGeometry x="902.5" y="280" width="95" height="40" as="geometry" />
        </mxCell>
        <mxCell id="OMhgGvtzp42g15X-fxHF-29" value="barrier&lt;br&gt;msg" style="rounded=0;whiteSpace=wrap;html=1;fillColor=#f8cecc;strokeColor=#b85450;" vertex="1" parent="WIyWlLk6GJQsqaUBKTNV-1">
          <mxGeometry x="1070" y="215" width="60" height="30" as="geometry" />
        </mxCell>
        <mxCell id="OMhgGvtzp42g15X-fxHF-34" value="" style="edgeStyle=orthogonalEdgeStyle;rounded=0;orthogonalLoop=1;jettySize=auto;html=1;fillColor=#f8cecc;strokeColor=#b85450;" edge="1" parent="WIyWlLk6GJQsqaUBKTNV-1" source="OMhgGvtzp42g15X-fxHF-30" target="OMhgGvtzp42g15X-fxHF-33">
          <mxGeometry relative="1" as="geometry" />
        </mxCell>
        <mxCell id="OMhgGvtzp42g15X-fxHF-30" value="process barrier msg" style="rounded=1;whiteSpace=wrap;html=1;fillColor=#f8cecc;strokeColor=#b85450;" vertex="1" parent="WIyWlLk6GJQsqaUBKTNV-1">
          <mxGeometry x="1052.5" y="280" width="95" height="40" as="geometry" />
        </mxCell>
        <mxCell id="OMhgGvtzp42g15X-fxHF-33" value="update handler job barrier table" style="rounded=1;whiteSpace=wrap;html=1;fillColor=#f8cecc;strokeColor=#b85450;" vertex="1" parent="WIyWlLk6GJQsqaUBKTNV-1">
          <mxGeometry x="1052.5" y="355" width="95" height="40" as="geometry" />
        </mxCell>
        <mxCell id="OMhgGvtzp42g15X-fxHF-35" value="campaign offer&lt;br&gt;producer&lt;br&gt;job" style="rounded=1;whiteSpace=wrap;html=1;fillColor=#dae8fc;strokeColor=#6c8ebf;" vertex="1" parent="WIyWlLk6GJQsqaUBKTNV-1">
          <mxGeometry x="140" y="480" width="110" height="50" as="geometry" />
        </mxCell>
        <mxCell id="OMhgGvtzp42g15X-fxHF-38" value="" style="edgeStyle=orthogonalEdgeStyle;rounded=0;orthogonalLoop=1;jettySize=auto;html=1;fillColor=#dae8fc;strokeColor=#6c8ebf;" edge="1" parent="WIyWlLk6GJQsqaUBKTNV-1" source="OMhgGvtzp42g15X-fxHF-36" target="OMhgGvtzp42g15X-fxHF-37">
          <mxGeometry relative="1" as="geometry" />
        </mxCell>
        <mxCell id="OMhgGvtzp42g15X-fxHF-36" value="query job &amp;nbsp;dependency" style="rounded=1;whiteSpace=wrap;html=1;fillColor=#dae8fc;strokeColor=#6c8ebf;" vertex="1" parent="WIyWlLk6GJQsqaUBKTNV-1">
          <mxGeometry x="320" y="485" width="95" height="40" as="geometry" />
        </mxCell>
        <mxCell id="OMhgGvtzp42g15X-fxHF-40" value="Y" style="edgeStyle=orthogonalEdgeStyle;rounded=0;orthogonalLoop=1;jettySize=auto;html=1;fillColor=#dae8fc;strokeColor=#6c8ebf;" edge="1" parent="WIyWlLk6GJQsqaUBKTNV-1" source="OMhgGvtzp42g15X-fxHF-37" target="OMhgGvtzp42g15X-fxHF-39">
          <mxGeometry relative="1" as="geometry" />
        </mxCell>
        <mxCell id="OMhgGvtzp42g15X-fxHF-42" value="" style="edgeStyle=orthogonalEdgeStyle;rounded=0;orthogonalLoop=1;jettySize=auto;html=1;fillColor=#dae8fc;strokeColor=#6c8ebf;" edge="1" parent="WIyWlLk6GJQsqaUBKTNV-1" source="OMhgGvtzp42g15X-fxHF-37" target="OMhgGvtzp42g15X-fxHF-41">
          <mxGeometry relative="1" as="geometry" />
        </mxCell>
        <mxCell id="OMhgGvtzp42g15X-fxHF-37" value="check dependency&amp;nbsp;&lt;br&gt;job&lt;br&gt;consumer&lt;br&gt;completion" style="rhombus;whiteSpace=wrap;html=1;fillColor=#dae8fc;strokeColor=#6c8ebf;" vertex="1" parent="WIyWlLk6GJQsqaUBKTNV-1">
          <mxGeometry x="464" y="477.5" width="118" height="55" as="geometry" />
        </mxCell>
        <mxCell id="OMhgGvtzp42g15X-fxHF-39" value="send &amp;nbsp;campaign msg" style="rounded=1;whiteSpace=wrap;html=1;fillColor=#dae8fc;strokeColor=#6c8ebf;" vertex="1" parent="WIyWlLk6GJQsqaUBKTNV-1">
          <mxGeometry x="475.5" y="580" width="95" height="40" as="geometry" />
        </mxCell>
        <mxCell id="OMhgGvtzp42g15X-fxHF-41" value="holder" style="rounded=1;whiteSpace=wrap;html=1;fillColor=#dae8fc;strokeColor=#6c8ebf;" vertex="1" parent="WIyWlLk6GJQsqaUBKTNV-1">
          <mxGeometry x="646" y="480" width="114" height="50" as="geometry" />
        </mxCell>
        <mxCell id="OMhgGvtzp42g15X-fxHF-43" value="job handler barrier table" style="text;html=1;strokeColor=none;fillColor=none;align=center;verticalAlign=middle;whiteSpace=wrap;rounded=0;" vertex="1" parent="WIyWlLk6GJQsqaUBKTNV-1">
          <mxGeometry x="165" y="780" width="145" height="30" as="geometry" />
        </mxCell>
        <mxCell id="OMhgGvtzp42g15X-fxHF-44" value="" style="shape=table;html=1;whiteSpace=wrap;startSize=0;container=1;collapsible=0;childLayout=tableLayout;" vertex="1" parent="WIyWlLk6GJQsqaUBKTNV-1">
          <mxGeometry x="296" y="850" width="184" height="120" as="geometry" />
        </mxCell>
        <mxCell id="OMhgGvtzp42g15X-fxHF-45" value="" style="shape=tableRow;horizontal=0;startSize=0;swimlaneHead=0;swimlaneBody=0;top=0;left=0;bottom=0;right=0;collapsible=0;dropTarget=0;fillColor=none;points=[[0,0.5],[1,0.5]];portConstraint=eastwest;" vertex="1" parent="OMhgGvtzp42g15X-fxHF-44">
          <mxGeometry width="184" height="40" as="geometry" />
        </mxCell>
        <mxCell id="OMhgGvtzp42g15X-fxHF-46" value="id" style="shape=partialRectangle;html=1;whiteSpace=wrap;connectable=0;fillColor=none;top=0;left=0;bottom=0;right=0;overflow=hidden;" vertex="1" parent="OMhgGvtzp42g15X-fxHF-45">
          <mxGeometry width="61" height="40" as="geometry">
            <mxRectangle width="61" height="40" as="alternateBounds" />
          </mxGeometry>
        </mxCell>
        <mxCell id="OMhgGvtzp42g15X-fxHF-47" value="jobid" style="shape=partialRectangle;html=1;whiteSpace=wrap;connectable=0;fillColor=none;top=0;left=0;bottom=0;right=0;overflow=hidden;" vertex="1" parent="OMhgGvtzp42g15X-fxHF-45">
          <mxGeometry x="61" width="62" height="40" as="geometry">
            <mxRectangle width="62" height="40" as="alternateBounds" />
          </mxGeometry>
        </mxCell>
        <mxCell id="OMhgGvtzp42g15X-fxHF-48" value="barrierId" style="shape=partialRectangle;html=1;whiteSpace=wrap;connectable=0;fillColor=none;top=0;left=0;bottom=0;right=0;overflow=hidden;" vertex="1" parent="OMhgGvtzp42g15X-fxHF-45">
          <mxGeometry x="123" width="61" height="40" as="geometry">
            <mxRectangle width="61" height="40" as="alternateBounds" />
          </mxGeometry>
        </mxCell>
        <mxCell id="OMhgGvtzp42g15X-fxHF-49" value="" style="shape=tableRow;horizontal=0;startSize=0;swimlaneHead=0;swimlaneBody=0;top=0;left=0;bottom=0;right=0;collapsible=0;dropTarget=0;fillColor=none;points=[[0,0.5],[1,0.5]];portConstraint=eastwest;" vertex="1" parent="OMhgGvtzp42g15X-fxHF-44">
          <mxGeometry y="40" width="184" height="40" as="geometry" />
        </mxCell>
        <mxCell id="OMhgGvtzp42g15X-fxHF-50" value="" style="shape=partialRectangle;html=1;whiteSpace=wrap;connectable=0;fillColor=none;top=0;left=0;bottom=0;right=0;overflow=hidden;" vertex="1" parent="OMhgGvtzp42g15X-fxHF-49">
          <mxGeometry width="61" height="40" as="geometry">
            <mxRectangle width="61" height="40" as="alternateBounds" />
          </mxGeometry>
        </mxCell>
        <mxCell id="OMhgGvtzp42g15X-fxHF-51" value="" style="shape=partialRectangle;html=1;whiteSpace=wrap;connectable=0;fillColor=none;top=0;left=0;bottom=0;right=0;overflow=hidden;" vertex="1" parent="OMhgGvtzp42g15X-fxHF-49">
          <mxGeometry x="61" width="62" height="40" as="geometry">
            <mxRectangle width="62" height="40" as="alternateBounds" />
          </mxGeometry>
        </mxCell>
        <mxCell id="OMhgGvtzp42g15X-fxHF-52" value="" style="shape=partialRectangle;html=1;whiteSpace=wrap;connectable=0;fillColor=none;top=0;left=0;bottom=0;right=0;overflow=hidden;" vertex="1" parent="OMhgGvtzp42g15X-fxHF-49">
          <mxGeometry x="123" width="61" height="40" as="geometry">
            <mxRectangle width="61" height="40" as="alternateBounds" />
          </mxGeometry>
        </mxCell>
        <mxCell id="OMhgGvtzp42g15X-fxHF-53" value="" style="shape=tableRow;horizontal=0;startSize=0;swimlaneHead=0;swimlaneBody=0;top=0;left=0;bottom=0;right=0;collapsible=0;dropTarget=0;fillColor=none;points=[[0,0.5],[1,0.5]];portConstraint=eastwest;" vertex="1" parent="OMhgGvtzp42g15X-fxHF-44">
          <mxGeometry y="80" width="184" height="40" as="geometry" />
        </mxCell>
        <mxCell id="OMhgGvtzp42g15X-fxHF-54" value="" style="shape=partialRectangle;html=1;whiteSpace=wrap;connectable=0;fillColor=none;top=0;left=0;bottom=0;right=0;overflow=hidden;" vertex="1" parent="OMhgGvtzp42g15X-fxHF-53">
          <mxGeometry width="61" height="40" as="geometry">
            <mxRectangle width="61" height="40" as="alternateBounds" />
          </mxGeometry>
        </mxCell>
        <mxCell id="OMhgGvtzp42g15X-fxHF-55" value="" style="shape=partialRectangle;html=1;whiteSpace=wrap;connectable=0;fillColor=none;top=0;left=0;bottom=0;right=0;overflow=hidden;" vertex="1" parent="OMhgGvtzp42g15X-fxHF-53">
          <mxGeometry x="61" width="62" height="40" as="geometry">
            <mxRectangle width="62" height="40" as="alternateBounds" />
          </mxGeometry>
        </mxCell>
        <mxCell id="OMhgGvtzp42g15X-fxHF-56" value="" style="shape=partialRectangle;html=1;whiteSpace=wrap;connectable=0;fillColor=none;top=0;left=0;bottom=0;right=0;overflow=hidden;pointerEvents=1;" vertex="1" parent="OMhgGvtzp42g15X-fxHF-53">
          <mxGeometry x="123" width="61" height="40" as="geometry">
            <mxRectangle width="61" height="40" as="alternateBounds" />
          </mxGeometry>
        </mxCell>
      </root>
    </mxGraphModel>
  </diagram>
</mxfile>
